<?xml version="1.0" encoding="UTF-8" standalone="no"?>
<!-- Created with Inkscape (http://www.inkscape.org/) -->

<svg
   width="39.717991mm"
   height="47.351631mm"
   viewBox="0 0 39.717991 47.351631"
   version="1.1"
   id="svg1"
   inkscape:version="1.3.2 (091e20e, 2023-11-25, custom)"
   sodipodi:docname="initials_small.svg"
   xmlns:inkscape="http://www.inkscape.org/namespaces/inkscape"
   xmlns:sodipodi="http://sodipodi.sourceforge.net/DTD/sodipodi-0.dtd"
   xmlns="http://www.w3.org/2000/svg"
   xmlns:svg="http://www.w3.org/2000/svg">
  <sodipodi:namedview
     id="namedview1"
     pagecolor="#ffffff"
     bordercolor="#000000"
     borderopacity="0.25"
     inkscape:showpageshadow="2"
     inkscape:pageopacity="0.0"
     inkscape:pagecheckerboard="0"
     inkscape:deskcolor="#d1d1d1"
     inkscape:document-units="mm"
     inkscape:zoom="1.0146815"
     inkscape:cx="4.9276545"
     inkscape:cy="436.09742"
     inkscape:window-width="2560"
     inkscape:window-height="1377"
     inkscape:window-x="-8"
     inkscape:window-y="-8"
     inkscape:window-maximized="1"
     inkscape:current-layer="layer1" />
  <defs
     id="defs1" />
  <g
     inkscape:label="Layer 1"
     inkscape:groupmode="layer"
     id="layer1"
     transform="translate(-13.162443,-10.594495)">
    <path
       d="m 13.427026,10.859078 v 5.246708 h 3.965649 v 26.673305 h -3.965649 v 5.24671 h 13.237951 5.674073 5.514909 l 3.111438,-3.11144 v -4.67826 -5.24723 -3.95996 l -2.013314,-2.01332 2.013314,-2.01331 V 13.970516 l -3.111438,-3.111438 z m 9.639721,5.246708 h 12.224577 v 10.286195 h -2.952274 -5.674073 -3.59823 z m 0,15.532905 h 3.59823 5.674073 2.952274 v 3.35018 5.24723 2.54299 h -2.952274 -5.674073 -3.59823 z"
       style="font-size:61.011px;line-height:0;font-family:Winner;-inkscape-font-specification:Winner;letter-spacing:0px;word-spacing:0px;opacity:1;stroke:#ffffff;stroke-width:0.529167;stroke-dasharray:none;stroke-opacity:1"
       id="path7" />
    <path
       d="m 40.965397,34.988871 v 5.24723 h 3.069063 v 12.19822 h -2.236556 v 5.24722 h 10.817944 v -5.24722 h -2.907316 v -28.78998 h 2.907316 V 18.397636 H 41.797904 v 5.246705 h 2.236556 v 11.34453 z"
       style="font-size:61.011px;line-height:0;font-family:Winner;-inkscape-font-specification:Winner;letter-spacing:0px;word-spacing:0px;opacity:1;stroke:#ffffff;stroke-width:0.529167;stroke-opacity:1"
       id="path11" />
    <path
       d="m 32.33905,48.025801 h -5.674073 v 4.40852 h -2.907316 v 5.24722 h 10.75645 v -5.24722 H 32.33905 Z"
       style="font-size:61.011px;line-height:0;font-family:Winner;-inkscape-font-specification:Winner;letter-spacing:0px;word-spacing:0px;opacity:1;stroke:#ffffff;stroke-width:0.529167;stroke-opacity:1"
       id="path10" />
    <path
       d="m 26.664977,42.779091 h 5.674073 v -2.54299 h 2.952274 v -5.24723 H 32.33905 v -3.35018 h -5.674073 z"
       style="font-size:61.011px;line-height:0;font-family:Winner;-inkscape-font-specification:Winner;letter-spacing:0px;word-spacing:0px;opacity:1;stroke:#ffffff;stroke-width:0.529167;stroke-opacity:1"
       id="path9" />
    <path
       d="m 26.664977,26.391981 h 5.674073 v -2.74764 h 2.175061 v -5.246705 h -10.75645 v 5.246705 h 2.907316 z"
       style="font-size:61.011px;line-height:0;font-family:Winner;-inkscape-font-specification:Winner;letter-spacing:0px;word-spacing:0px;opacity:1;stroke:#ffffff;stroke-width:0.529167;stroke-opacity:1"
       id="path8" />
  </g>
</svg>
